<svg xmlns="http://www.w3.org/2000/svg" width="20" height="20" viewBox="0 0 20 20"><g transform="translate(9.211 7.251)"><path d="M24.537,21.917l3.6-1.96a.984.984,0,0,0,.32-1.36h0a.984.984,0,0,0-1.36-.32l-3.6,1.96a.984.984,0,0,0-.32,1.36h0A.951.951,0,0,0,24.537,21.917Z" transform="translate(-23.028 -18.128)" fill="#e80057"/></g><path d="M10,0A10,10,0,1,0,20,10,10,10,0,0,0,10,0Zm0,18a8,8,0,1,1,8-8A8.024,8.024,0,0,1,10,18Z" fill="#111"/><g transform="translate(5.059 5.219)"><path d="M14.309,13.309a.992.992,0,0,0-1.32,1.48l4.16,4a.992.992,0,0,0,1.32-1.48Z" transform="translate(-12.648 -13.048)" fill="#111"/></g></svg>