<svg xmlns="http://www.w3.org/2000/svg" width="37.522" height="48.45" viewBox="0 0 37.522 48.45"><path d="M243.484,9.939H242.1a9.5,9.5,0,0,0-2.127-6.476,6.081,6.081,0,0,0-4.56-2.076c-3.248,0-6.744,2.676-6.744,8.552H227.28a10.8,10.8,0,0,1,2.5-7.394A7.522,7.522,0,0,1,235.409,0C239.3,0,243.484,3.11,243.484,9.939Z" transform="translate(-216.686)" fill="#fd314c"/><path d="M19.656,238.22v10.825a.9.9,0,0,1-1.791,0V238.22H0v37.346H11.56V257.789a.9.9,0,1,1,1.792,0v17.777H24.04V257.789a.9.9,0,1,1,1.791,0v17.777H37.522V238.22Z" transform="translate(0 -227.116)" fill="#fd314c"/></svg>