<svg xmlns="http://www.w3.org/2000/svg" width="19.878" height="21" viewBox="0 0 19.878 21"><path d="M19.871,20.309,18.126,5.11a.664.664,0,0,0-.68-.559h-3.28V3.867A4.066,4.066,0,0,0,9.937,0,4.066,4.066,0,0,0,5.709,3.867v.684H2.428a.664.664,0,0,0-.68.559L0,20.309a.592.592,0,0,0,.172.484A.716.716,0,0,0,.68,21H19.191a.716.716,0,0,0,.508-.207.591.591,0,0,0,.172-.484ZM7.076,3.867A2.747,2.747,0,0,1,9.937,1.251,2.747,2.747,0,0,1,12.8,3.867v.684H7.076ZM1.442,19.748,3.042,5.8H5.709V7.177a.686.686,0,0,0,1.367,0V5.8H12.8V7.177a.686.686,0,0,0,1.367,0V5.8H16.83l1.6,13.948Zm0,0" transform="translate(0.004 0.001)" fill="#fd314c"/></svg>