<svg xmlns="http://www.w3.org/2000/svg" width="19.966" height="20" viewBox="0 0 19.966 20"><g transform="translate(0)"><path d="M19.56,4.52,17.2,1.08A2.728,2.728,0,0,0,15.04,0H4.96A2.532,2.532,0,0,0,2.84,1.12L.48,4.56A2.313,2.313,0,0,0,0,6V17.44A2.578,2.578,0,0,0,2.56,20H17.4a2.552,2.552,0,0,0,2.56-2.56V6A2.437,2.437,0,0,0,19.56,4.52ZM15.04,2a.57.57,0,0,1,.48.24L17,4.4H11V2ZM4.48,2.24A.57.57,0,0,1,4.96,2H9V4.4H3ZM18,17.44a.547.547,0,0,1-.56.56H2.56A.547.547,0,0,1,2,17.44V6.92a.529.529,0,0,1,.52-.52H17.56a.529.529,0,0,1,.52.52V17.44Z" transform="translate(0 0)" fill="#111"/></g><path d="M22,23H16a.99.99,0,0,1-1-1h0a.99.99,0,0,1,1-1h6a.99.99,0,0,1,1,1h0A.99.99,0,0,1,22,23Z" transform="translate(-9 -12.6)" fill="#e80057"/></svg>